<?xml version="1.0" encoding="UTF-8" standalone="no"?>
<!-- Created with Inkscape (http://www.inkscape.org/) -->

<svg
   width="53.495358mm"
   height="74.63327mm"
   viewBox="0 0 53.495358 74.63327"
   version="1.1"
   id="svg5"
   sodipodi:docname="icon.svg"
   inkscape:version="1.1.2 (b8e25be8, 2022-02-05)"
   xmlns:inkscape="http://www.inkscape.org/namespaces/inkscape"
   xmlns:sodipodi="http://sodipodi.sourceforge.net/DTD/sodipodi-0.dtd"
   xmlns="http://www.w3.org/2000/svg"
   xmlns:svg="http://www.w3.org/2000/svg">
  <sodipodi:namedview
     id="namedview7"
     pagecolor="#ffffff"
     bordercolor="#666666"
     borderopacity="1.0"
     inkscape:pageshadow="2"
     inkscape:pageopacity="0.0"
     inkscape:pagecheckerboard="0"
     inkscape:document-units="mm"
     showgrid="false"
     showguides="false"
     inkscape:guide-bbox="true"
     inkscape:zoom="2.2104989"
     inkscape:cx="46.595817"
     inkscape:cy="153.81143"
     inkscape:window-width="1920"
     inkscape:window-height="1080"
     inkscape:window-x="1792"
     inkscape:window-y="0"
     inkscape:window-maximized="0"
     inkscape:current-layer="g146"
     inkscape:lockguides="true" />
  <defs
     id="defs2" />
  <g
     inkscape:label="Layer 1"
     inkscape:groupmode="layer"
     id="layer1"
     transform="translate(-0.070703,-0.10073)">
    <g
       id="g948"
       transform="translate(-77.980311,-123.10375)">
      <path
         id="rect94"
         style="opacity:0;fill:url(#SVGID_1_);stroke-width:0.246822"
         d="m 78.051014,123.20448 h 53.495356 v 74.63327 H 78.051014 Z" />
      <g
         id="g146"
         transform="matrix(0.26458333,0,0,0.26458333,71.260594,119.59022)">
        <g
           id="g104"
           transform="matrix(1.3329885,0,0,1.3329885,-30.080401,-42.358207)">
          <path
             fill="#f58c1f"
             d="m 135.264,82.511 2.966,-6.672 c 0,0 47.199,-14.085 38.056,-26.071 0,0 11.988,9.267 1.176,17.916 -10e-4,0 -7.355,8.402 -42.198,14.827 z"
             id="path98" />
          <path
             fill="#231f20"
             d="m 137.734,60.022 c 0,0 -7.659,-6.178 -13.591,0 -10.625,18.04 -41.021,57.578 -27.183,89.21 0,0 4.995,12.867 19.59,19.229 10.343,4.508 33.788,6.039 47.132,-3.166 0,0 -1.483,-6.178 -7.784,-4.324 -6.302,1.854 -28.913,1.482 -37.624,-14.828 -11.861,-23.167 6.118,-61.408 19.46,-86.121 z"
             id="path100" />
          <path
             fill="#0aa89d"
             d="m 51.368,97.461 c 0,0 123.188,-4.696 123.929,-24.465 0,0 9.885,13.344 -5.683,21.993 -15.816,11.121 -86.245,9.886 -118.246,2.472 z"
             id="path102" />
        </g>
        <g
           id="g674">
          <g
             id="g144">
            <g
               id="g126"
               transform="matrix(1.74793,0,0,1.74793,10.151563,-158.77574)">
              <g
                 id="g116">
                <path
                   fill="#231f20"
                   d="m 21.212,205.373 0.819,-0.281 v 4.219 h 3.949 c 0,0 0.539,0.071 0.659,0.533 0.12,0.463 0.19,0.732 0.19,0.732 h -4.798 v 10.448 c 0,2.401 0.906,3.602 2.719,3.602 0.611,0 1.159,-0.118 1.645,-0.356 l 0.062,1.265 c -0.568,0.217 -1.149,0.324 -1.739,0.324 -1.476,0 -2.53,-0.403 -3.163,-1.217 -0.632,-0.811 -0.948,-2.016 -0.948,-3.617 v -10.448 h -2.633 v -1.266 h 2.633 c 0,0 -0.048,-2.333 0,-3.029 0.048,-0.698 0.605,-0.909 0.605,-0.909 z"
                   id="path108" />
                <path
                   fill="#231f20"
                   d="m 36.83,208.889 c 2.108,0 3.832,0.791 5.17,2.369 1.339,1.579 2.008,3.656 2.008,6.229 0,2.531 -0.68,4.582 -2.04,6.149 -1.359,1.568 -3.126,2.353 -5.297,2.353 -2.172,0 -3.937,-0.789 -5.296,-2.369 -1.36,-1.579 -2.04,-3.635 -2.04,-6.165 0,-2.552 0.691,-4.618 2.071,-6.197 1.381,-1.578 3.189,-2.369 5.424,-2.369 z m -0.19,1.265 c -1.75,0 -3.146,0.671 -4.19,2.013 -1.043,1.342 -1.565,3.126 -1.565,5.353 0,2.163 0.527,3.9 1.581,5.208 1.054,1.309 2.456,1.962 4.206,1.962 1.75,0 3.158,-0.657 4.222,-1.978 1.064,-1.319 1.597,-3.094 1.597,-5.322 0,-2.228 -0.527,-3.99 -1.581,-5.289 -1.055,-1.297 -2.478,-1.947 -4.27,-1.947 z"
                   id="path110" />
                <path
                   fill="#231f20"
                   d="m 61.021,209.213 v 11.454 c 0,2.164 0.052,3.829 0.158,4.997 h -1.391 c -0.084,-0.908 -0.127,-2.065 -0.127,-3.472 h -0.063 c -0.527,1.212 -1.281,2.146 -2.261,2.807 -0.98,0.661 -2.124,0.99 -3.431,0.99 -2.045,0 -3.553,-0.822 -4.523,-2.466 -0.569,-0.995 -0.854,-2.618 -0.854,-4.867 v -9.443 c 0,0 1.126,-0.229 1.423,0.835 0,0.574 0,8.381 0,8.381 0,2.271 0.321,3.888 0.964,4.852 0.643,0.961 1.734,1.443 3.272,1.443 1.856,0 3.332,-0.864 4.428,-2.597 0.4,-0.605 0.664,-1.201 0.791,-1.784 0.126,-0.584 0.189,-1.438 0.189,-2.562 0,0 -0.135,-6.954 0,-7.772 0.137,-0.821 1.425,-0.796 1.425,-0.796 z"
                   id="path112" />
                <path
                   fill="#231f20"
                   d="m 66.904,225.664 v -11.453 c 0,-1.712 -0.034,-3.111 -0.1,-4.199 0.22,-0.946 1.333,-0.799 1.333,-0.799 0.084,1.169 0.126,2.325 0.126,3.472 h 0.062 c 0.295,-1.081 0.865,-1.983 1.708,-2.71 0.843,-0.724 1.771,-1.086 2.782,-1.086 0.2,0 0.4,0.011 0.601,0.032 0.53,-0.019 0.576,0.636 0.576,0.636 l -0.038,0.793 c -0.359,-0.088 -0.748,-0.13 -1.17,-0.13 -1.265,0 -2.325,0.612 -3.179,1.833 -0.853,1.223 -1.281,2.666 -1.281,4.331 v 9.28 z"
                   id="path114" />
              </g>
              <path
                 fill="#0ea79d"
                 d="m 75.355,225.288 c 0,0 -0.385,-1.236 1.152,-1.553 1.002,0.404 2.041,0.605 3.118,0.605 0.99,0 1.829,-0.244 2.514,-0.735 0.685,-0.488 1.028,-1.213 1.028,-2.171 0,-0.805 -0.252,-1.436 -0.759,-1.894 -0.506,-0.457 -1.465,-0.99 -2.878,-1.601 -1.328,-0.566 -2.313,-1.175 -2.957,-1.829 -0.643,-0.651 -0.964,-1.544 -0.964,-2.676 0,-1.416 0.495,-2.537 1.486,-3.363 0.99,-0.827 2.246,-1.241 3.763,-1.241 0.957,0 1.842,0.106 2.655,0.318 1.507,0.255 0.824,2.229 0.824,2.229 -1.033,-0.522 -2.193,-0.784 -3.479,-0.784 -0.928,0 -1.697,0.24 -2.309,0.72 -0.611,0.479 -0.917,1.142 -0.917,1.991 0,0.74 0.264,1.334 0.791,1.779 0.527,0.447 1.412,0.909 2.656,1.388 1.455,0.566 2.515,1.22 3.179,1.959 0.664,0.74 0.996,1.677 0.996,2.809 0,1.589 -0.533,2.803 -1.597,3.641 -1.065,0.839 -2.377,1.258 -3.937,1.258 -1.213,0 -2.396,-0.186 -3.553,-0.558 -0.271,-0.087 -0.542,-0.185 -0.812,-0.292 z"
                 id="path118" />
              <path
                 fill="#0ea79d"
                 d="m 104.377,225.288 c 0,0 -0.386,-1.236 1.151,-1.553 1.002,0.404 2.042,0.605 3.117,0.605 0.99,0 1.83,-0.244 2.514,-0.735 0.686,-0.488 1.028,-1.213 1.028,-2.171 0,-0.805 -0.253,-1.436 -0.758,-1.894 -0.506,-0.457 -1.466,-0.99 -2.878,-1.601 -1.328,-0.566 -2.314,-1.175 -2.957,-1.829 -0.644,-0.651 -0.964,-1.544 -0.964,-2.676 0,-1.416 0.495,-2.537 1.486,-3.363 0.991,-0.827 2.245,-1.241 3.763,-1.241 0.958,0 1.842,0.106 2.655,0.318 1.507,0.255 0.824,2.229 0.824,2.229 -1.033,-0.522 -2.193,-0.784 -3.479,-0.784 -0.927,0 -1.696,0.24 -2.308,0.72 -0.611,0.479 -0.918,1.142 -0.918,1.991 0,0.74 0.264,1.334 0.792,1.779 0.526,0.447 1.411,0.909 2.656,1.388 1.454,0.566 2.514,1.22 3.179,1.959 0.663,0.74 0.995,1.677 0.995,2.809 0,1.589 -0.532,2.803 -1.597,3.641 -1.065,0.839 -2.377,1.258 -3.936,1.258 -1.212,0 -2.397,-0.186 -3.554,-0.558 -0.271,-0.087 -0.542,-0.185 -0.811,-0.292 z"
                 id="path120" />
              <path
                 fill="#0ea79d"
                 d="m 87.204,208.73 c 0,0 2.403,0.108 2.841,1.202 0.437,1.091 5.243,13.98 5.243,13.98 l -1.311,2.076 z"
                 id="path122" />
              <path
                 fill="#f58c1f"
                 d="m 105.446,206.546 c 0,0 -20.536,22.938 -8.848,28.728 0.001,-0.001 -5.461,-6.226 8.848,-28.728 z"
                 id="path124" />
            </g>
            <g
               id="g142"
               transform="matrix(1.5370586,0,0,1.5370586,-154.63095,-63.57543)">
              <path
                 fill="#0ea79d"
                 d="m 139.605,210.593 -0.105,1.091 c -0.943,-0.483 -2.049,-0.726 -3.319,-0.726 -1.681,0 -3.043,0.595 -4.089,1.782 -1.045,1.188 -1.567,2.707 -1.567,4.558 0,1.913 0.512,3.463 1.537,4.651 1.024,1.188 2.407,1.781 4.149,1.781 1.271,0 2.407,-0.272 3.412,-0.819 l 0.095,1.166 c 0,0 0.113,0.739 -0.51,0.959 -0.955,0.349 -1.995,0.524 -3.12,0.524 -2.335,0 -4.206,-0.746 -5.608,-2.239 -1.404,-1.493 -2.106,-3.47 -2.106,-5.93 0,-2.396 0.717,-4.367 2.151,-5.913 1.434,-1.546 3.3,-2.318 5.594,-2.318 0.993,0 1.889,0.11 2.688,0.33 0.839,0.25 0.798,1.103 0.798,1.103 z"
                 id="path128" />
              <path
                 fill="#0ea79d"
                 d="m 226.952,210.593 -0.106,1.091 c -0.942,-0.483 -2.049,-0.726 -3.319,-0.726 -1.681,0 -3.043,0.595 -4.088,1.782 -1.045,1.187 -1.567,2.707 -1.567,4.558 0,1.913 0.512,3.463 1.536,4.651 1.025,1.188 2.408,1.781 4.149,1.781 1.271,0 2.408,-0.272 3.412,-0.819 l 0.095,1.166 c 0,0 0.114,0.739 -0.51,0.959 -0.955,0.349 -1.995,0.524 -3.119,0.524 -2.336,0 -4.206,-0.746 -5.609,-2.239 -1.404,-1.493 -2.105,-3.47 -2.105,-5.93 0,-2.396 0.717,-4.367 2.151,-5.913 1.434,-1.546 3.299,-2.318 5.594,-2.318 0.992,0 1.888,0.11 2.688,0.33 0.837,0.25 0.798,1.103 0.798,1.103 z"
                 id="path130" />
              <path
                 fill="#0ea79d"
                 d="m 150.411,209.003 c 2.151,0 3.914,0.783 5.286,2.35 1.373,1.566 2.06,3.59 2.06,6.07 0,2.461 -0.696,4.458 -2.09,5.993 -1.394,1.534 -3.197,2.302 -5.409,2.302 -2.193,0 -3.986,-0.772 -5.38,-2.318 -1.394,-1.545 -2.09,-3.537 -2.09,-5.977 0,-2.501 0.707,-4.53 2.121,-6.086 1.414,-1.557 3.247,-2.334 5.502,-2.334 z m -0.184,1.734 c -1.598,0 -2.885,0.61 -3.857,1.829 -0.974,1.22 -1.46,2.839 -1.46,4.856 0,1.978 0.491,3.564 1.476,4.763 0.983,1.198 2.274,1.798 3.873,1.798 1.618,0 2.92,-0.604 3.903,-1.813 0.983,-1.209 1.476,-2.812 1.476,-4.81 0,-1.997 -0.492,-3.601 -1.476,-4.81 -0.984,-1.209 -2.297,-1.813 -3.935,-1.813 z"
                 id="path132" />
              <path
                 fill="#0ea79d"
                 d="m 164.519,212.346 h 0.062 c 1.209,-2.229 3.002,-3.343 5.379,-3.343 1.987,0 3.396,0.631 4.227,1.893 0.83,1.262 1.244,3.017 1.244,5.266 v 9.21 h -2.028 v -8.483 c 0,-2.103 -0.282,-3.653 -0.846,-4.652 -0.563,-0.998 -1.572,-1.498 -3.027,-1.498 -1.476,0 -2.669,0.562 -3.581,1.688 -0.911,1.125 -1.367,2.76 -1.367,4.904 v 8.042 h -1.998 v -11.196 c 0,-2.081 -0.052,-3.689 -0.153,-4.825 h 0.779 c 0,0 1.267,0.204 1.276,1.507 0.022,0.52 0.033,1.016 0.033,1.487 z"
                 id="path134" />
              <path
                 fill="#0ea79d"
                 d="m 183.145,212.346 h 0.062 c 1.209,-2.229 3.002,-3.343 5.379,-3.343 1.987,0 3.396,0.631 4.227,1.893 0.829,1.262 1.244,3.017 1.244,5.266 v 9.21 h -2.028 v -8.483 c 0,-2.103 -0.281,-3.653 -0.846,-4.652 -0.563,-0.998 -1.572,-1.498 -3.027,-1.498 -1.475,0 -2.669,0.562 -3.58,1.688 -0.912,1.125 -1.368,2.76 -1.368,4.904 v 8.042 h -1.998 v -11.196 c 0,-2.081 -0.051,-3.689 -0.153,-4.825 h 0.78 c 0,0 1.251,0.241 1.276,1.507 0.02,0.52 0.032,1.016 0.032,1.487 z"
                 id="path136" />
              <path
                 fill="#0ea79d"
                 d="m 212.006,217.739 h -11.249 c 0.021,1.913 0.548,3.427 1.583,4.541 1.034,1.114 2.453,1.671 4.256,1.671 1.435,0 2.849,-0.378 4.242,-1.135 l 0.05,1.053 c 0,0 0.229,0.946 -0.904,1.29 -1.07,0.372 -2.22,0.559 -3.448,0.559 -2.501,0 -4.432,-0.746 -5.794,-2.239 -1.363,-1.492 -2.044,-3.563 -2.044,-6.213 0,-2.46 0.656,-4.452 1.967,-5.977 1.312,-1.524 3.022,-2.286 5.133,-2.286 1.987,0 3.53,0.651 4.627,1.955 1.096,1.304 1.644,3.206 1.644,5.709 -0.002,0.252 -0.022,0.609 -0.063,1.072 z m -11.188,-1.672 h 9.251 c 0,-1.766 -0.379,-3.111 -1.137,-4.037 -0.758,-0.925 -1.813,-1.388 -3.166,-1.388 -1.373,0 -2.505,0.474 -3.396,1.419 -0.891,0.948 -1.409,2.283 -1.552,4.006 z"
                 id="path138" />
              <path
                 fill="#0ea79d"
                 d="m 234.228,205.092 v 4.353 h 2.872 c 1.488,0.369 1.247,1.703 1.247,1.703 h -4.119 v 8.925 c 0,1.304 0.21,2.271 0.63,2.901 0.42,0.63 1.102,0.946 2.044,0.946 0.574,0 1.117,-0.115 1.63,-0.347 l 0.059,1.054 c 0,0 0.073,0.635 -0.643,0.788 -0.425,0.097 -0.876,0.146 -1.353,0.146 -1.599,0 -2.721,-0.431 -3.366,-1.293 -0.645,-0.862 -0.968,-2.146 -0.968,-3.849 v -9.271 h -3.35 v -1.703 h 3.35 v -2.273 c 0,0 -0.112,-1.377 0.919,-1.71 0.671,-0.236 1.048,-0.37 1.048,-0.37 z"
                 id="path140" />
            </g>
          </g>
        </g>
      </g>
    </g>
  </g>
</svg>
